# xmcd CD database file
#
# Track frame offsets:
#	150
#	34335
#	71600
#	104741
#	138589
#	164116
#	194387
#	214780
#	252529
#	276116
#	311013
#
# Disc length: 4346 seconds
#
# Revision: 1
# Processed by: cddbd v1.5.2PL0 Copyright (c) Steve Scherf et al.
# Submitted via: CDex 1.51
#
DISCID=b610f80b
DTITLE=Dexter Gordon - 60's Blue Note Sessions [CD2]
DYEAR=1900
DGENRE=Jazz
TTITLE0=Love For Sale
TTITLE1=A Night In Tunisia
TTITLE2=Scrapple From The Apple
TTITLE3=Darn That Dream
TTITLE4=Jodi
TTITLE5=I'm a Fool to Want You
TTITLE6=Dexter on Bird
TTITLE7=Manha de Carnival
TTITLE8=Who Can I Turn To?
TTITLE9=Heartaches
TTITLE10=Smile
EXTD=
EXTT0=
EXTT1=
EXTT2=
EXTT3=
EXTT4=
EXTT5=
EXTT6=
EXTT7=
EXTT8=
EXTT9=
EXTT10=
PLAYORDER=
